<?xml version="1.0" standalone="no"?>
<!DOCTYPE svg PUBLIC "-//W3C//DTD SVG 20010904//EN"
 "http://www.w3.org/TR/2001/REC-SVG-20010904/DTD/svg10.dtd">
<svg version="1.0" xmlns="http://www.w3.org/2000/svg"
 width="492.000000pt" height="501.000000pt" viewBox="0 0 492.000000 501.000000"
 preserveAspectRatio="xMidYMid meet">

<g transform="translate(0.000000,501.000000) scale(0.100000,-0.100000)"
fill="#000000" stroke="none">
<path d="M2325 4830 c-323 -36 -633 -138 -900 -295 -336 -198 -631 -500 -815
-835 l-52 -95 6 55 c20 206 28 347 22 425 -12 167 -24 183 -56 73 -11 -40 -65
-210 -119 -378 -54 -168 -109 -352 -121 -410 -29 -136 -27 -131 -44 -124 -11
4 -16 -7 -21 -53 -9 -76 -37 -195 -75 -318 -42 -137 -57 -203 -70 -324 -29
-267 62 -525 229 -651 36 -28 86 -57 111 -66 25 -9 51 -19 58 -22 7 -4 37 -60
66 -125 169 -367 462 -700 814 -926 237 -151 526 -263 797 -311 147 -25 392
-40 515 -32 161 12 99 26 -120 28 -370 2 -654 66 -965 218 -208 101 -356 203
-533 369 -206 192 -363 407 -481 658 -83 177 -111 268 -111 364 0 174 36 292
172 575 147 303 177 405 184 640 6 164 -3 261 -24 268 -7 2 -12 -6 -12 -20 0
-49 -60 -191 -141 -334 -46 -82 -95 -171 -108 -199 -77 -164 -130 -378 -139
-560 -7 -142 -19 -113 -24 55 -2 83 2 120 19 175 11 39 51 246 88 460 67 390
67 390 115 490 235 487 700 898 1221 1080 246 86 475 125 732 125 343 0 644
-68 954 -216 81 -38 133 -58 133 -50 0 7 -51 38 -112 68 -203 100 -387 159
-623 199 -137 23 -440 33 -570 19z m-1768 -877 c-7 -209 -19 -307 -93 -741
-59 -351 -97 -554 -111 -591 -8 -20 -13 -11 -36 65 -56 186 -59 379 -12 622
27 136 51 219 165 572 40 124 74 231 76 238 2 6 6 12 10 12 4 0 4 -80 1 -177z
m231 -748 c-20 -199 -53 -302 -184 -575 -115 -241 -139 -304 -157 -423 -13
-77 -14 -80 -21 -44 -11 57 -9 302 3 385 32 217 88 366 232 622 42 74 87 162
100 194 l24 60 6 -70 c3 -38 2 -105 -3 -149z m-534 -815 c33 -191 87 -349 161
-468 39 -65 42 -72 22 -67 -82 25 -197 132 -251 234 -60 114 -80 206 -81 361
0 154 13 228 78 445 l42 140 6 -275 c5 -182 12 -307 23 -370z m60 218 c10 -23
22 -92 26 -153 13 -160 61 -410 96 -499 5 -13 4 -17 -3 -13 -19 12 -92 190
-117 288 -37 138 -56 290 -55 430 l0 124 18 -67 c10 -36 26 -86 35 -110z"/>
<path d="M3788 4435 c-9 -21 -8 -28 7 -45 24 -27 51 -25 70 4 23 34 5 66 -36
66 -22 0 -32 -6 -41 -25z"/>
<path d="M4080 4189 c-9 -16 -8 -26 5 -45 19 -29 46 -31 70 -4 15 17 16 24 7
45 -15 32 -66 35 -82 4z"/>
<path d="M4338 3909 c-27 -15 -24 -67 5 -78 46 -18 86 38 52 73 -19 18 -33 20
-57 5z"/>
<path d="M4546 3503 c115 -267 170 -515 181 -803 14 -401 -84 -802 -277 -1142
-33 -58 -48 -94 -42 -100 20 -20 155 243 222 432 87 242 123 461 123 740 0
339 -62 624 -200 921 -74 159 -80 119 -7 -48z"/>
<path d="M3450 3354 c-286 -55 -474 -315 -433 -600 29 -204 183 -376 392 -438
67 -20 207 -21 277 -2 134 36 261 137 326 261 57 110 89 305 52 319 -9 3 -135
6 -280 6 l-264 0 0 -110 c0 -109 0 -110 25 -116 14 -3 70 -5 125 -2 68 2 100
0 100 -7 0 -16 -70 -80 -110 -101 -19 -9 -67 -19 -106 -22 -61 -4 -80 -1 -126
20 -97 45 -151 136 -152 258 -1 63 4 85 27 132 71 144 234 206 366 139 21 -11
61 -45 88 -76 26 -30 54 -55 61 -55 7 0 53 29 103 64 l89 64 -29 38 c-68 94
-174 172 -280 205 -64 20 -200 32 -251 23z m301 -85 c74 -36 194 -138 187
-159 -2 -5 -30 -29 -62 -52 l-59 -43 -53 51 c-74 72 -142 97 -250 92 -94 -5
-146 -30 -208 -99 -62 -68 -81 -120 -81 -224 0 -73 5 -100 24 -142 28 -63 112
-145 178 -175 67 -30 190 -31 254 -2 62 29 116 79 144 135 31 59 32 59 -134
59 l-128 0 4 68 c3 37 6 68 7 69 1 1 103 3 228 5 l226 3 -5 -50 c-29 -296
-282 -501 -563 -458 -296 46 -475 368 -363 656 26 66 99 164 156 206 109 81
173 101 317 98 98 -2 110 -5 181 -38z"/>
<path d="M1290 2832 c0 -456 2 -511 16 -516 9 -3 67 -6 130 -6 l114 0 0 84 0
84 31 4 c29 5 39 -3 118 -84 l86 -88 165 0 164 0 -64 68 c-171 178 -167 172
-145 184 44 26 113 101 137 150 37 76 51 153 46 246 -9 152 -88 261 -246 339
l-76 38 -238 3 -238 4 0 -510z m541 431 c79 -39 140 -102 177 -181 23 -50 27
-70 26 -152 0 -74 -5 -108 -22 -151 -28 -69 -88 -140 -150 -176 -26 -15 -49
-28 -51 -29 -2 -2 40 -50 94 -106 l98 -103 -106 -3 -105 -3 -58 63 c-33 34
-69 72 -81 85 -19 20 -32 23 -94 23 l-72 0 5 -85 6 -85 -82 0 -81 0 3 457 c1
252 4 464 7 472 4 10 45 12 213 10 l207 -4 66 -32z"/>
<path d="M1490 2925 c0 -278 -10 -259 139 -253 115 4 168 28 216 96 28 41 30
49 30 141 0 90 -2 101 -28 139 -52 80 -130 111 -274 112 l-83 0 0 -235z m260
162 c45 -30 70 -75 77 -139 10 -101 -30 -181 -106 -211 -51 -21 -191 -34 -191
-18 0 6 5 11 10 11 6 0 10 70 10 190 l0 190 84 0 c70 0 88 -4 116 -23z"/>
<path d="M2180 2831 c0 -455 2 -510 16 -515 9 -3 65 -6 125 -6 l109 0 0 74 0
73 103 6 c56 3 125 13 152 22 125 43 227 149 266 276 32 105 25 241 -17 329
-53 112 -165 204 -288 236 -35 10 -115 14 -258 14 l-208 0 0 -509z m523 435
c74 -36 147 -109 184 -183 26 -53 28 -67 28 -168 0 -99 -3 -116 -27 -168 -37
-79 -78 -128 -141 -170 -75 -50 -142 -67 -264 -67 l-103 0 0 -75 0 -75 -87 1
c-49 0 -82 3 -75 6 9 4 12 107 12 470 l0 465 208 -3 c204 -4 208 -5 265 -33z"/>
<path d="M2380 2912 c0 -219 2 -251 16 -256 9 -3 57 -6 107 -6 107 0 155 17
204 73 40 46 57 97 57 172 0 107 -40 179 -132 232 -38 23 -59 27 -148 31
l-104 5 0 -251z m256 166 c50 -44 74 -99 74 -173 0 -98 -54 -182 -128 -202
-36 -10 -146 -10 -149 0 -2 4 -3 97 -3 207 l0 200 85 0 c81 0 86 -1 121 -32z"/>
<path d="M3855 1696 c-5 -2 -46 -11 -90 -20 -44 -9 -111 -22 -150 -30 -38 -8
-128 -24 -200 -35 -71 -12 -168 -30 -215 -40 -47 -11 -123 -25 -170 -31 -120
-16 -237 -41 -256 -54 -13 -10 -13 -21 6 -106 11 -52 32 -135 45 -185 14 -49
40 -155 60 -234 37 -156 72 -251 91 -251 6 0 30 6 52 14 22 8 62 18 89 21 26
4 86 18 133 30 47 13 105 27 129 30 l44 7 -5 -47 c-3 -26 -11 -52 -16 -57 -6
-6 -46 -19 -89 -28 -52 -11 -79 -21 -81 -31 -2 -9 24 -36 60 -64 35 -27 68
-56 74 -64 9 -12 18 -12 60 2 27 8 67 18 89 22 70 11 217 59 222 73 6 15 -13
39 -41 53 -14 7 -11 2 8 -14 15 -14 24 -27 19 -30 -28 -18 -141 -48 -227 -62
-54 -8 -102 -17 -105 -19 -4 -3 -29 14 -58 37 -28 23 -59 47 -69 53 -16 10
-11 13 41 28 33 9 68 19 78 22 12 4 17 0 17 -16 0 -20 4 -22 36 -15 48 9 84
26 84 40 0 6 18 16 40 21 33 9 45 8 72 -8 l33 -19 -30 26 c-26 22 -36 24 -74
19 l-43 -7 7 54 c4 30 9 56 10 59 7 11 447 136 520 148 44 7 56 20 50 56 -47
294 -93 531 -114 594 l-19 57 -54 2 c-29 1 -57 0 -63 -1z m129 -99 c14 -46 32
-128 41 -182 8 -55 25 -167 38 -248 l23 -149 -25 -10 c-25 -10 -124 -37 -261
-72 -36 -9 -141 -39 -235 -65 -179 -51 -292 -80 -440 -111 -49 -10 -99 -22
-111 -25 -18 -6 -23 1 -42 59 -12 37 -22 73 -22 82 0 9 -5 12 -12 8 -7 -4 -8
-3 -4 5 9 14 -24 162 -35 155 -14 -8 -19 14 -24 93 -3 44 -19 131 -39 201
l-34 124 46 19 c43 19 103 30 247 45 33 4 68 11 77 15 9 5 110 25 225 45 114
19 260 46 323 59 140 29 155 32 201 34 l37 1 26 -83z m-1154 -280 c17 -71 30
-136 28 -145 -3 -9 -11 12 -20 48 -9 36 -23 90 -31 120 -22 85 -29 126 -18
115 5 -6 24 -68 41 -138z m99 -407 c0 -8 -7 1 -14 20 -18 46 -17 64 0 25 8
-16 14 -37 14 -45z m588 -92 c-3 -13 -9 -49 -12 -80 -4 -32 -11 -58 -15 -58
-4 0 -22 -3 -40 -6 -31 -7 -32 -6 -27 22 3 16 9 51 12 77 7 49 23 65 69 66 14
1 17 -4 13 -21z m-547 -53 c0 -5 -5 -3 -10 5 -5 8 -10 20 -10 25 0 6 5 3 10
-5 5 -8 10 -19 10 -25z"/>
<path d="M3878 1655 c-3 -4 -39 -12 -79 -20 -41 -7 -128 -25 -194 -40 -205
-45 -405 -83 -526 -99 -105 -15 -227 -41 -237 -51 -4 -4 17 -80 48 -175 10
-30 21 -71 24 -90 9 -63 65 -314 82 -368 14 -47 19 -53 38 -48 11 3 61 14 110
25 49 12 119 30 155 40 36 11 93 27 126 37 33 9 89 25 125 35 118 33 174 47
290 74 149 34 222 62 216 84 -2 9 -7 36 -11 61 -3 25 -15 86 -25 135 -10 50
-24 124 -29 165 -6 41 -21 111 -35 155 -20 69 -27 80 -48 83 -13 2 -27 0 -30
-3z m46 -17 c34 -119 50 -184 56 -233 5 -33 20 -125 34 -205 14 -80 22 -148
18 -152 -13 -13 -172 -58 -242 -69 -36 -5 -96 -19 -135 -30 -38 -12 -106 -32
-150 -45 -278 -83 -476 -128 -486 -112 -9 14 -71 273 -94 388 -8 41 -28 116
-43 165 -27 83 -28 91 -12 97 9 3 89 18 176 33 87 15 267 49 399 76 132 28
269 55 305 61 36 6 85 17 110 24 58 16 60 16 64 2z"/>
<path d="M3694 1457 c-73 -94 -131 -180 -223 -331 -102 -167 -120 -212 -36
-91 30 44 64 94 75 110 60 87 230 350 230 357 0 13 -3 10 -46 -45z"/>
<path d="M3332 1385 c-104 -125 -281 -389 -269 -401 8 -9 67 71 247 340 8 12
37 50 64 85 77 99 46 82 -42 -24z"/>
<path d="M3149 1313 c-34 -38 -53 -63 -46 -63 2 0 21 20 41 45 41 50 44 61 5
18z"/>
<path d="M3777 1293 c-57 -79 -147 -230 -130 -220 19 12 181 267 170 267 -3 0
-21 -21 -40 -47z"/>
<path d="M3842 1201 c-34 -43 -42 -62 -17 -41 22 18 58 70 53 76 -3 2 -19 -14
-36 -35z"/>
<path d="M4150 724 c-8 -3 -40 -16 -70 -29 -30 -12 -74 -31 -98 -41 -23 -9
-54 -28 -68 -41 l-25 -23 58 -69 c32 -37 74 -88 94 -112 47 -57 81 -76 112
-61 12 6 74 35 137 66 124 58 155 83 146 113 -10 32 -107 121 -178 163 -66 39
-78 43 -108 34z m121 -66 c59 -39 149 -127 149 -147 0 -4 -46 -29 -102 -56
-57 -28 -119 -60 -139 -72 -33 -20 -39 -20 -64 -7 -15 8 -36 24 -47 37 -10 12
-41 47 -68 77 -26 30 -58 67 -69 82 l-21 26 36 21 c19 12 37 21 40 21 3 0 25
9 49 20 87 40 140 57 155 49 8 -4 45 -27 81 -51z"/>
<path d="M4084 635 c-23 -21 -24 -24 -4 -11 28 18 44 21 35 6 -4 -6 7 -10 27
-10 31 1 32 1 13 16 -18 14 -17 14 20 9 84 -12 115 -38 100 -84 -10 -33 -38
-33 -129 -3 -47 16 -86 28 -86 27 0 -10 61 -39 106 -51 75 -19 89 -18 113 12
40 50 -9 102 -106 111 -54 5 -62 3 -89 -22z"/>
<path d="M3809 525 c-3 -2 -65 -11 -139 -20 -129 -15 -255 -34 -515 -75 -66
-10 -143 -22 -172 -25 -69 -9 -86 -23 -89 -75 -2 -30 1 -39 8 -32 14 14 33
-10 83 -101 20 -37 42 -67 48 -67 12 0 146 20 262 39 33 5 123 20 200 34 77
14 158 28 180 31 76 13 210 35 248 42 20 4 37 12 37 19 0 17 -33 110 -64 178
-23 50 -29 57 -54 57 -16 0 -31 -2 -33 -5z m41 -9 c0 -2 3 -11 6 -20 5 -12 0
-16 -19 -16 -24 0 -42 21 -30 34 7 7 43 8 43 2z m-60 -32 c0 -9 -5 -14 -12
-12 -18 6 -21 28 -4 28 9 0 16 -7 16 -16z m-85 -3 c7 -12 -12 -24 -25 -16 -11
7 -4 25 10 25 5 0 11 -4 15 -9z m45 -1 c0 -5 -7 -10 -15 -10 -8 0 -15 5 -15
10 0 6 7 10 15 10 8 0 15 -4 15 -10z m-127 -14 c6 -16 -2 -28 -14 -20 -12 7
-11 34 0 34 5 0 11 -6 14 -14z m37 4 c0 -5 -4 -10 -9 -10 -6 0 -13 5 -16 10
-3 6 1 10 9 10 9 0 16 -4 16 -10z m-130 -26 c0 -8 -4 -14 -9 -14 -12 0 -32 26
-25 33 10 9 34 -4 34 -19z m61 -8 c14 -30 14 -36 2 -40 -7 -3 -17 2 -20 12 -4
9 -13 23 -20 30 -18 19 -16 32 5 32 11 0 24 -14 33 -34z m284 24 c4 -6 -5 -10
-20 -10 -15 0 -24 4 -20 10 3 6 12 10 20 10 8 0 17 -4 20 -10z m-387 -24 c3
-12 -1 -17 -10 -14 -7 3 -15 13 -16 22 -3 12 1 17 10 14 7 -3 15 -13 16 -22z
m320 13 c-2 -6 -8 -10 -13 -10 -5 0 -11 4 -13 10 -2 6 4 11 13 11 9 0 15 -5
13 -11z m-361 -14 c3 -9 3 -19 -1 -22 -7 -7 -36 16 -36 28 0 15 30 10 37 -6z
m277 0 c3 -9 0 -15 -9 -15 -8 0 -15 7 -15 15 0 8 4 15 9 15 5 0 11 -7 15 -15z
m41 5 c3 -5 2 -10 -4 -10 -5 0 -13 5 -16 10 -3 6 -2 10 4 10 5 0 13 -4 16 -10z
m-407 -24 c3 -12 -1 -17 -10 -14 -7 3 -15 13 -16 22 -3 12 1 17 10 14 7 -3 15
-13 16 -22z m47 4 c0 -22 -29 -18 -33 3 -3 14 1 18 15 15 10 -2 18 -10 18 -18z
m280 11 c3 -5 0 -13 -6 -17 -6 -3 -15 -1 -19 6 -5 8 -9 7 -13 -4 -8 -20 -27
-21 -27 -2 0 20 54 34 65 17z m-399 -26 c3 -14 10 -25 15 -25 5 0 9 -4 9 -10
0 -16 -19 -12 -42 9 -12 12 -18 26 -15 35 9 24 26 19 33 -9z m28 9 c9 -24 7
-28 -9 -14 -17 14 -20 30 -6 30 5 0 12 -7 15 -16z m581 6 c-3 -5 -15 -10 -26
-10 -10 0 -19 5 -19 10 0 6 12 10 26 10 14 0 23 -4 19 -10z m-652 -21 c4 -15
1 -19 -11 -17 -21 4 -29 38 -9 38 8 0 17 -9 20 -21z m305 3 c2 -7 -7 -12 -22
-12 -27 0 -35 15 -13 23 17 7 30 3 35 -11z m237 8 c3 -5 -1 -10 -10 -10 -9 0
-13 5 -10 10 3 6 8 10 10 10 2 0 7 -4 10 -10z m42 4 c-3 -3 -12 -4 -19 -1 -8
3 -5 6 6 6 11 1 17 -2 13 -5z m-624 -19 c9 -23 -14 -30 -31 -9 -12 16 -14 16
-9 2 3 -10 2 -20 -2 -23 -12 -7 -34 22 -26 35 9 15 62 12 68 -5z m287 -6 c0
-5 -9 -9 -20 -9 -22 0 -27 16 -7 23 15 5 27 -1 27 -14z m255 11 c3 -5 -1 -10
-9 -10 -9 0 -16 5 -16 10 0 6 4 10 9 10 6 0 13 -4 16 -10z m-621 -16 c8 -22 8
-24 -8 -24 -15 0 -28 24 -19 34 11 10 21 7 27 -10z m316 1 c0 -8 -7 -15 -15
-15 -8 0 -15 7 -15 15 0 8 7 15 15 15 8 0 15 -7 15 -15z m260 5 c0 -5 -7 -10
-15 -10 -8 0 -15 5 -15 10 0 6 7 10 15 10 8 0 15 -4 15 -10z m206 -5 c-3 -8
-2 -15 2 -15 11 0 42 -67 35 -74 -18 -18 -42 -3 -54 32 -6 20 -16 42 -21 49
-6 8 -3 13 9 16 32 8 35 7 29 -8z m-868 -36 c-7 -4 -19 -2 -27 4 -12 9 -13 9
-7 0 5 -9 1 -13 -11 -14 -10 0 -13 -3 -5 -6 20 -8 14 -33 -8 -33 -11 0 -20 7
-20 15 0 8 -4 15 -10 15 -5 0 -10 -5 -10 -12 0 -6 -7 -3 -15 8 -18 24 -19 40
-1 25 11 -9 14 -8 12 6 -1 14 7 18 37 19 20 1 41 4 44 8 4 4 13 -1 20 -10 10
-14 10 -19 1 -25z m50 17 c3 -13 -1 -17 -14 -14 -11 2 -20 11 -22 22 -3 13 1
17 14 14 11 -2 20 -11 22 -22z m312 14 c0 -5 -7 -10 -15 -10 -8 0 -15 5 -15
10 0 6 7 10 15 10 8 0 15 -4 15 -10z m260 0 c0 -5 -4 -10 -10 -10 -5 0 -10 5
-10 10 0 6 5 10 10 10 6 0 10 -4 10 -10z m185 0 c3 -5 -1 -10 -10 -10 -9 0
-13 5 -10 10 3 6 8 10 10 10 2 0 7 -4 10 -10z m-493 -12 c-9 -9 -15 -9 -24 0
-9 9 -7 12 12 12 19 0 21 -3 12 -12z m176 -7 c3 -8 -3 -11 -14 -10 -11 2 -25
0 -32 -5 -16 -10 -42 -1 -42 15 0 7 10 9 25 7 14 -3 28 -1 31 4 8 12 27 5 32
-11z m40 7 c19 -19 14 -30 -8 -18 -11 6 -20 15 -20 20 0 14 14 12 28 -2z m52
2 c0 -5 -6 -10 -14 -10 -8 0 -18 5 -21 10 -3 6 3 10 14 10 12 0 21 -4 21 -10z
m142 -5 c0 -5 -5 -11 -11 -13 -6 -2 -11 4 -11 13 0 9 5 15 11 13 6 -2 11 -8
11 -13z m48 5 c0 -5 -7 -10 -15 -10 -8 0 -15 5 -15 10 0 6 7 10 15 10 8 0 15
-4 15 -10z m-575 -10 c3 -5 -1 -10 -10 -10 -9 0 -13 5 -10 10 3 6 8 10 10 10
2 0 7 -4 10 -10z m35 0 c0 -5 -4 -10 -10 -10 -5 0 -10 5 -10 10 0 6 5 10 10
10 6 0 10 -4 10 -10z m458 -10 c7 -12 10 -25 7 -30 -9 -14 -65 -12 -65 1 0 6
7 8 18 4 12 -4 14 -3 6 5 -13 13 -44 3 -44 -16 0 -21 -28 -17 -40 7 -14 26
-16 24 45 37 28 5 52 10 55 11 3 0 11 -8 18 -19z m-528 0 c0 -5 -7 -10 -15
-10 -8 0 -15 5 -15 10 0 6 7 10 15 10 8 0 15 -4 15 -10z m234 3 c5 -4 1 -10
-10 -15 -12 -5 -1 -7 33 -5 31 1 52 -2 50 -8 -1 -5 -21 -10 -45 -10 -23 0 -42
-3 -42 -7 0 -5 -4 -8 -10 -8 -5 0 -10 9 -10 21 0 11 -4 18 -10 14 -5 -3 -7
-12 -4 -19 6 -15 -16 -22 -98 -31 -28 -3 -48 -2 -48 4 0 10 49 24 71 19 10 -2
13 5 11 21 -3 20 0 23 17 18 12 -3 21 -2 21 2 0 10 60 12 74 4z m426 -8 c0 -8
-4 -15 -10 -15 -5 0 -10 7 -10 15 0 8 5 15 10 15 6 0 10 -7 10 -15z m-740 -10
c0 -8 -4 -15 -10 -15 -5 0 -10 7 -10 15 0 8 5 15 10 15 6 0 10 -7 10 -15z m40
5 c0 -5 -4 -10 -9 -10 -6 0 -13 5 -16 10 -3 6 1 10 9 10 9 0 16 -4 16 -10z
m662 -5 c0 -5 -5 -11 -11 -13 -6 -2 -11 4 -11 13 0 9 5 15 11 13 6 -2 11 -8
11 -13z m-732 -5 c0 -5 -9 -10 -20 -10 -11 0 -20 5 -20 10 0 6 9 10 20 10 11
0 20 -4 20 -10z m220 -1 c0 -6 -9 -9 -20 -6 -11 3 -20 1 -20 -4 0 -5 -7 -9
-15 -9 -14 0 -20 12 -10 21 10 10 65 9 65 -2z m250 1 c0 -5 -7 -10 -15 -10 -8
0 -15 5 -15 10 0 6 7 10 15 10 8 0 15 -4 15 -10z m225 0 c3 -5 -3 -10 -14 -10
-12 0 -21 5 -21 10 0 6 6 10 14 10 8 0 18 -4 21 -10z m-745 -10 c0 -5 -4 -10
-9 -10 -6 0 -13 5 -16 10 -3 6 1 10 9 10 9 0 16 -4 16 -10z m187 -24 c3 -20 0
-27 -9 -23 -7 2 -12 12 -10 22 2 10 -1 14 -8 10 -15 -9 -43 2 -35 14 3 6 17 9
32 8 21 -2 27 -8 30 -31z m-69 6 c2 -7 -3 -12 -12 -12 -9 0 -16 7 -16 16 0 17
22 14 28 -4z m442 3 c0 -8 -4 -15 -9 -15 -5 0 -23 -3 -41 -7 -25 -5 -32 -3
-28 8 4 12 28 21 71 28 4 0 7 -6 7 -14z m240 3 c0 -10 3 -9 9 1 10 15 31 7 31
-13 0 -8 -10 -14 -22 -15 -13 -1 -36 -3 -53 -4 -41 -3 -48 30 -8 36 15 2 31 5
36 6 4 0 7 -5 7 -11z m-720 -14 c0 -9 -5 -14 -12 -12 -18 6 -21 28 -4 28 9 0
16 -7 16 -16z m-40 -3 c0 -4 -15 -13 -32 -19 -30 -10 -31 -11 -6 -9 33 2 38
-16 6 -25 l-23 -6 23 -1 c12 -1 22 -7 22 -16 0 -29 -44 -16 -61 18 -9 17 -21
32 -27 32 -5 0 -14 4 -19 9 -5 5 -3 6 5 2 6 -4 12 -3 12 3 0 10 26 17 73 20
15 0 27 -3 27 -8z m430 -1 c0 -5 -10 -11 -22 -11 -23 -2 -23 -2 -2 -6 30 -6
38 -40 12 -49 -20 -6 -38 9 -38 32 0 16 -36 24 -48 12 -6 -6 -12 -6 -17 1 -3
6 0 13 7 15 7 3 20 7 28 9 27 9 80 7 80 -3z m207 -26 c-9 -10 -38 16 -31 28 4
6 13 4 22 -6 9 -8 13 -19 9 -22z m43 20 c0 -9 -7 -14 -17 -12 -25 5 -28 28 -4
28 12 0 21 -6 21 -16z m-565 -14 c-3 -5 -13 -9 -23 -9 -9 0 -32 -2 -49 -6 -22
-4 -33 -2 -33 5 0 7 7 10 15 6 8 -3 15 -1 15 4 0 5 15 10 33 12 37 4 50 0 42
-12z m475 16 c0 -2 3 -11 6 -20 4 -12 0 -16 -15 -16 -12 0 -21 2 -21 4 0 2 -3
11 -6 20 -4 12 0 16 15 16 12 0 21 -2 21 -4z m-330 -15 c0 -10 -100 -35 -107
-27 -12 11 9 23 43 24 20 1 39 4 42 7 9 8 22 6 22 -4z m40 -1 c0 -5 -4 -10 -9
-10 -6 0 -13 5 -16 10 -3 6 1 10 9 10 9 0 16 -4 16 -10z m248 -12 c3 -14 -3
-18 -27 -18 -25 0 -31 4 -31 21 0 16 5 20 27 17 17 -2 29 -10 31 -20z m-68 -8
c0 -11 -7 -20 -15 -20 -8 0 -15 2 -15 4 0 2 -3 11 -6 20 -4 12 0 16 15 16 14
0 21 -6 21 -20z m-340 -5 c0 -10 -10 -15 -30 -15 -16 0 -30 4 -30 9 0 8 10 12
53 20 4 0 7 -6 7 -14z m228 -10 c2 -18 -8 -22 -105 -37 -84 -14 -109 -15 -115
-5 -15 24 0 32 93 48 113 20 123 20 127 -6z m-454 -1 c3 -8 2 -12 -4 -9 -6 3
-10 10 -10 16 0 14 7 11 14 -7z m162 -9 c4 -10 14 -13 29 -9 23 6 41 -18 29
-37 -10 -16 -54 -10 -61 9 -4 9 -12 21 -20 25 -7 4 -13 12 -13 17 0 16 30 11
36 -5z m-46 -5 c0 -5 -7 -10 -15 -10 -8 0 -15 5 -15 10 0 6 7 10 15 10 8 0 15
-4 15 -10z m40 -52 c0 -14 -27 -9 -41 8 -10 13 -10 17 2 25 13 8 39 -13 39
-33z m-56 16 c8 -21 8 -21 -31 -27 -18 -3 -36 0 -39 5 -4 7 -2 8 4 4 7 -4 12
-1 12 8 0 12 12 19 41 25 4 0 10 -6 13 -15z"/>
<path d="M3350 319 c0 -5 5 -7 10 -4 6 3 10 8 10 11 0 2 -4 4 -10 4 -5 0 -10
-5 -10 -11z"/>
</g>
</svg>
