<?xml version="1.0" standalone="no"?>
<!DOCTYPE svg PUBLIC "-//W3C//DTD SVG 20010904//EN"
 "http://www.w3.org/TR/2001/REC-SVG-20010904/DTD/svg10.dtd">
<svg version="1.0" xmlns="http://www.w3.org/2000/svg"
 width="500.000000pt" height="500.000000pt" viewBox="0 0 500.000000 500.000000"
 preserveAspectRatio="xMidYMid meet">
<metadata>
Created by potrace 1.16, written by Peter Selinger 2001-2019
</metadata>
<g transform="translate(0.000000,500.000000) scale(0.100000,-0.100000)"
fill="#000000" stroke="none">
<path d="M1642 2673 l3 -358 2 348 3 347 153 0 c177 0 230 -12 304 -66 l48
-35 -47 45 c-71 66 -112 76 -305 76 l-163 0 2 -357z"/>
<path d="M2352 2673 l3 -358 2 348 3 347 149 0 c167 0 218 -11 290 -61 43 -30
44 -31 22 -6 -14 15 -52 41 -85 57 -58 30 -61 30 -223 30 l-163 0 2 -357z"/>
<path d="M2939 2705 c-7 -100 -32 -158 -99 -229 -67 -71 -128 -97 -242 -104
l-88 -5 0 -58 0 -59 -90 0 c-53 0 -90 -4 -90 -10 0 -6 38 -10 95 -10 l95 0 0
53 0 54 98 10 c118 13 178 40 241 108 58 63 83 124 89 215 2 42 2 84 0 95 -2
11 -7 -16 -9 -60z"/>
<path d="M3814 2612 c-24 -150 -114 -274 -242 -335 -62 -30 -75 -32 -172 -32
-120 0 -172 15 -248 72 -46 35 -46 35 -18 5 91 -98 270 -134 415 -85 162 55
288 233 279 394 l-3 54 -11 -73z"/>
</g>
</svg>
